# xmcd
#
# Track frame offsets:
#	150
#	18479
#	35136
#	55538
#	69009
#	84864
#	100073
#	116200
#	132253
#	147179
#	159212
#	171404
#	188745
#	211021
#	227673
#	257025
#
# Disc length: 3433 seconds
#
# Revision: 1
# Processed by: cddbd v1.5.2PL0 Copyright (c) Steve Scherf et al.
# Submitted via: audiograbber 1.83.01
#
DISCID=cc0d6710
DTITLE=Unknown - Mixed Country #4
DYEAR=2007
DGENRE=Country
TTITLE0=Andy Griggs - She Thinks She Needs Me
TTITLE1=Big And Rich - Save A Horse
TTITLE2=Brad Paisley\\Allison - Whiskey Lullaby
TTITLE3=Brooks And Dunn - Thats What She Gets
TTITLE4=Buddy Jewel - Sweet Southern Comfort
TTITLE5=Gretchen Wilson - Here For The Party
TTITLE6=Gretchen Wilson - Redneck Woman
TTITLE7=Jimmy Buffett\\M.McBrid - Trip Around The Sun
TTITLE8=Jo Dee Messina - My Give A Damns Busted
TTITLE9=John M. Montgomery - 4 Wheel Drive
TTITLE10=Josh Gracin - Nothin' To Lose
TTITLE11=Josh Gracin - I Want To Live
TTITLE12=Keith Urban - Ypu'll Think Of Me
TTITLE13=Kenny Chesney\\Uncle Kracker - When The Sun Goes Down
TTITLE14=Martina McBride - How Far
TTITLE15=Data Track - Data Track
EXTD=
EXTT0=
EXTT1=
EXTT2=
EXTT3=
EXTT4=
EXTT5=
EXTT6=
EXTT7=
EXTT8=
EXTT9=
EXTT10=
EXTT11=
EXTT12=
EXTT13=
EXTT14=
EXTT15=
PLAYORDER=
